<?xml version="1.0" encoding="utf-8"?>
<!-- Generator: Adobe Illustrator 15.1.0, SVG Export Plug-In . SVG Version: 6.00 Build 0)  -->
<!DOCTYPE svg PUBLIC "-//W3C//DTD SVG 1.1//EN" "http://www.w3.org/Graphics/SVG/1.1/DTD/svg11.dtd">
<svg version="1.1" id="Ebene_1" xmlns="http://www.w3.org/2000/svg" xmlns:xlink="http://www.w3.org/1999/xlink" x="0px" y="0px"
	 width="183.583px" height="55.825px" viewBox="77.583 0 183.583 55.825" enable-background="new 77.583 0 183.583 55.825"
	 xml:space="preserve">
<g>
	<g>
		<path fill="#E40033" d="M253.172,18.314h7.245v-4.938C260.417,5.385,255.423,0,248.304,0c-5.059,0-8.232,2.106-10.179,6.525
			c-1.95-1.706-4.372-2.714-7.431-2.714c-6.806,0-11.486,5.345-11.486,12.964v1.539h7.24v-0.851c0-3.498,1.812-5.458,4.686-5.458
			c2.808,0,4.744,1.959,4.744,5.458v3.924h-5.283v8.117h17.897v-8.117h-5.684v-7.388c0-3.684,1.998-5.869,5.182-5.869
			c3.249,0,5.182,2.186,5.182,5.869V18.314z M261.166,33.347c0-0.055-0.005-0.104-0.006-0.158h-7.801
			c0,0.033,0.003,0.064,0.003,0.096c0,7.68-5.558,13.299-13.487,13.299c-7.994,0-13.612-5.619-13.612-13.301
			c0-0.029,0.001-0.061,0.001-0.094h-7.804c0,0.033-0.003,0.064-0.003,0.094c0,12.303,9.242,21.981,21.356,21.981
			C251.926,55.264,261.166,45.587,261.166,33.347"/>
	</g>
	<g>
		<path fill="#FFFFFF" d="M146.52,19.662c0-2.386,1.763-4.329,4.414-4.329c1.679,0,2.614,0.635,2.926,0.839l-0.983,1.799
			c-0.144-0.12-0.755-0.54-1.655-0.54c-1.438,0-2.362,0.852-2.362,2.219c0,1.415,0.936,2.255,2.374,2.255
			c0.9,0,1.512-0.456,1.644-0.576l0.983,1.8c-0.312,0.203-1.199,0.852-2.926,0.852C148.295,23.981,146.52,22.062,146.52,19.662z"/>
		<path fill="#FFFFFF" d="M154.283,19.626c0-2.482,1.932-4.377,4.546-4.377c2.591,0,4.497,1.835,4.497,4.377
			c0,2.52-1.906,4.39-4.497,4.39C156.215,24.016,154.283,22.097,154.283,19.626z M160.988,19.626c0-1.354-0.912-2.302-2.159-2.302
			c-1.271,0-2.207,0.959-2.207,2.302c0,1.319,0.936,2.315,2.207,2.315C160.076,21.942,160.988,20.958,160.988,19.626z"/>
		<path fill="#FFFFFF" d="M171.403,17.456h-2.734v6.416h-2.291v-6.416h-2.698v-2.015h7.724V17.456z"/>
		<path fill="#FFFFFF" d="M179.359,17.456h-2.734v6.416h-2.291v-6.416h-2.698v-2.015h7.724V17.456z"/>
		<path fill="#FFFFFF" d="M187.34,21.449c0,1.499-0.96,2.423-3.383,2.423h-3.598v-8.431h3.466c2.267,0,3.19,0.947,3.19,2.279
			c0,0.815-0.516,1.451-1.332,1.715C186.896,19.698,187.34,20.538,187.34,21.449z M183.777,17.168h-1.223v1.643h1.234
			c0.708,0,1.068-0.3,1.068-0.827C184.857,17.491,184.484,17.168,183.777,17.168z M185.145,21.281c0-0.563-0.359-0.839-1.176-0.839
			h-1.414v1.703h1.414C184.761,22.146,185.145,21.81,185.145,21.281z"/>
		<path fill="#FFFFFF" d="M188.555,20.094v-4.653h2.291v4.833c0,0.779,0.396,1.667,1.584,1.667c1.199,0,1.619-0.888,1.619-1.667
			v-4.833h2.29v4.653c0,2.567-1.56,3.887-3.909,3.887C190.114,23.981,188.555,22.661,188.555,20.094z"/>
		<path fill="#FFFFFF" d="M197.327,22.937l1.067-1.799c0.791,0.611,1.451,0.888,2.482,0.888c0.552,0,0.852-0.216,0.852-0.588
			c0-0.432-0.312-0.6-1.499-0.947c-1.823-0.54-2.53-1.235-2.53-2.507c0-1.607,1.307-2.65,3.311-2.65
			c1.234,0,2.206,0.335,3.058,0.923l-0.96,1.715c-0.646-0.432-1.427-0.684-2.146-0.684c-0.623,0-0.947,0.168-0.947,0.516
			c0,0.323,0.229,0.468,1.463,0.839c1.775,0.528,2.531,1.308,2.531,2.591c0,1.739-1.199,2.747-3.287,2.747
			C199.366,23.981,198.238,23.597,197.327,22.937z"/>
		<path fill="#FFFFFF" d="M78.384,37.446l0.636-1.008c0.684,0.54,1.559,0.852,2.482,0.852c0.972,0,1.655-0.456,1.655-1.295
			c0-0.804-0.528-1.212-1.895-1.548c-1.547-0.396-2.542-0.995-2.542-2.387c0-1.367,1.187-2.326,2.854-2.326
			c1.248,0,2.087,0.323,2.687,0.815l-0.587,0.936c-0.588-0.432-1.175-0.66-2.099-0.66c-0.947,0-1.607,0.42-1.607,1.176
			c0,0.743,0.612,1.031,1.811,1.343c1.643,0.433,2.626,1.067,2.626,2.555c0,1.571-1.247,2.483-2.89,2.483
			C80.219,38.381,79.176,38.045,78.384,37.446z"/>
		<path fill="#FFFFFF" d="M92,30.945h-2.83v7.328h-1.248v-7.328h-2.878v-1.104H92V30.945z"/>
		<path fill="#FFFFFF" d="M97.449,36.497h-4.054l-0.731,1.775h-1.307l3.622-8.432h0.911l3.598,8.432h-1.319L97.449,36.497z
			 M93.815,35.43h3.202l-1.595-3.861L93.815,35.43z"/>
		<path fill="#FFFFFF" d="M108.116,34.051c0,2.53-1.763,4.222-4.414,4.222h-3.046v-8.432h3.046
			C106.353,29.841,108.116,31.521,108.116,34.051z M106.856,34.063c0-1.858-1.223-3.118-3.166-3.118h-1.799v6.225h1.799
			C105.633,37.169,106.856,35.922,106.856,34.063z"/>
		<path fill="#FFFFFF" d="M115.484,30.945h-2.83v7.328h-1.248v-7.328h-2.878v-1.104h6.956V30.945z"/>
		<path fill="#FFFFFF" d="M122.373,37.181v1.092h-5.625v-8.432h5.613v1.104h-4.378v2.507h3.838v1.104h-3.838v2.626H122.373z"/>
		<path fill="#FFFFFF" d="M131.42,29.841v8.527h-0.72l-5.361-6.32v6.225h-1.211v-8.516h0.731l5.337,6.321v-6.237H131.42z"/>
		<path fill="#FFFFFF" d="M139.641,30.945h-2.83v7.328h-1.247v-7.328h-2.879v-1.104h6.956V30.945z"/>
		<path fill="#FFFFFF" d="M151.051,29.841l-2.531,8.432h-0.923l-2.172-6.524l-2.146,6.524h-0.911l-2.53-8.432h1.307l0.792,2.963
			l0.947,3.646l1.091-3.538l1.044-3.07h0.852l1.056,3.07l1.115,3.538l0.972-3.646l0.804-2.963H151.051z"/>
		<path fill="#FFFFFF" d="M152.22,29.841h1.235v8.432h-1.235V29.841z"/>
		<path fill="#FFFFFF" d="M155.16,34.063c0-2.482,1.811-4.329,4.461-4.329c1.512,0,2.411,0.539,2.759,0.791l-0.575,0.983
			c-0.217-0.168-0.912-0.623-2.088-0.623c-1.967,0-3.285,1.259-3.285,3.166c0,1.895,1.283,3.179,3.285,3.179
			c1.176,0,1.848-0.42,2.1-0.588l0.563,0.972c-0.348,0.251-1.235,0.768-2.759,0.768C156.936,38.381,155.16,36.533,155.16,34.063z"/>
		<path fill="#FFFFFF" d="M168.908,38.273l-3.861-3.718v3.718h-1.235v-8.432h1.235v3.754l3.682-3.754h1.535l-4.09,4.15l4.402,4.281
			H168.908z"/>
		<path fill="#FFFFFF" d="M177.092,37.181v1.092h-5.589v-8.432h1.235v7.34H177.092z"/>
		<path fill="#FFFFFF" d="M177.924,34.759v-4.918h1.259v5.014c0,1.367,0.839,2.387,2.362,2.387c1.512,0,2.327-1.02,2.327-2.387
			v-5.014h1.235v4.918c0,2.351-1.428,3.622-3.574,3.622C179.362,38.381,177.924,37.097,177.924,34.759z"/>
		<path fill="#FFFFFF" d="M194.527,29.841v8.527h-0.72l-5.36-6.32v6.225h-1.212v-8.516h0.731l5.337,6.321v-6.237H194.527z"/>
		<path fill="#FFFFFF" d="M203.875,34.255v3.214c-0.492,0.324-1.486,0.912-3.189,0.912c-2.567,0-4.475-1.848-4.475-4.318
			c0-2.458,1.907-4.329,4.51-4.329c1.607,0,2.494,0.575,2.807,0.791l-0.563,0.983c-0.228-0.18-0.96-0.623-2.171-0.623
			c-1.859,0-3.311,1.307-3.311,3.178c0,1.883,1.487,3.202,3.263,3.202c0.827,0,1.487-0.191,1.942-0.407v-2.603H203.875z"/>
	</g>
</g>
</svg>
